# xmcd
#
# Track frame offsets: 
#        150
#        15430
#        31555
#        47877
#        60840
#        72517
#        84327
#        96600
#        107695
#        121692
#
# Disc length: 1797 seconds
#
# Revision: 0
# Processed by: cddbd v1.5.1PL2 Copyright (c) Steve Scherf et al.
# Submitted via: ExactAudioCopy v0.95b3
#
DISCID=7207030a
DTITLE=DeWitt "Scotty" Scott - St. Louis Blues
DYEAR=1989
DGENRE=Hawaiian
TTITLE0=Hawaiian Wedding Song
TTITLE1=Blue Hawaii
TTITLE2=Beyond The Reef
TTITLE3=Harbor Lights
TTITLE4=How D'Ya Do
TTITLE5=Beer Barrel Polka - Tennessee Polka
TTITLE6=Blue Eyes Crying In The Rain
TTITLE7=Sun Shadows
TTITLE8=Cold, Cold Heart
TTITLE9=St. Louis Blues
EXTD=
EXTT0=
EXTT1=
EXTT2=
EXTT3=
EXTT4=
EXTT5=
EXTT6=
EXTT7=
EXTT8=
EXTT9=
PLAYORDER=
